<svg version="1.1" xmlns="http://www.w3.org/2000/svg" xmlns:xlink="http://www.w3.org/1999/xlink" x="0px" y="0px" viewBox="0 0 256 256" enable-background="new 0 0 256 256" xml:space="preserve"><path fill="#000000" d="M125.1,15.8c-0.9,0.3-2.2,1.1-3,1.9c-0.8,0.8-8.1,15-17.6,34.1L88.3,84.5l-36.1,5.2c-24.5,3.5-36.7,5.5-38,6.1c-1,0.5-2.5,1.8-3.1,2.8c-1.1,1.5-1.2,2.3-1.1,5.2l0.2,3.4l11.2,11.1c6.1,6.1,18.2,17.9,26.8,26.3l15.6,15.2l-6.1,35.9c-3.4,19.8-6.2,36.4-6.2,37.1c0,0.6,0.5,2.3,1.2,3.6c1.6,3.1,4,4.4,7.8,4.1c2.6-0.2,6.4-2.1,35-17.1c17.6-9.3,32.1-16.9,32.3-16.9s14.7,7.6,32.3,16.9c34.9,18.4,35.2,18.5,39.4,16.5c2.1-1,3.9-3.4,4.4-6c0.2-0.9-2.2-16.1-5.9-37.8l-6.2-36.3l5-4.9c2.7-2.7,14.5-14.3,26.2-25.6c11.7-11.4,21.6-21.4,22.1-22.2c2-3.9,0.2-9.6-3.6-11.3c-1-0.4-17.4-3-37.9-6l-36.1-5.2l-16.2-32.7c-9.2-18.7-16.8-33.3-17.6-34.1C131.6,15.5,128.3,14.8,125.1,15.8z M141.8,70.9c13.1,26.4,13.7,27.4,15.8,28.5c1.7,0.9,8,2,30.7,5.3c15.7,2.2,29.1,4.3,29.7,4.4c1,0.3-1.7,3.2-20.2,21.2c-11.7,11.4-21.8,21.5-22.4,22.4c-0.5,0.9-1,2.5-1,3.5s2.2,15,5,31c2.7,16,5,29.2,4.9,29.3c-0.1,0.1-12.2-6.2-27.1-14c-23.3-12.2-27.2-14.1-29.3-14.1c-2,0-6,1.9-29.3,14.1c-14.8,7.8-27,14.1-27.1,14c-0.1-0.1,2.1-13.2,4.9-29.3c2.8-16,5-29.8,5-30.6s-0.3-2.2-0.7-3.2c-0.5-1.1-9.2-10-22.4-22.8c-20.6-20.1-21.6-21.1-20.2-21.5c0.8-0.3,14-2.2,29.5-4.4c19.9-2.8,28.7-4.3,30.3-5.1c1.5-0.7,2.6-1.8,3.5-3.3c0.7-1.3,6.9-13.7,13.8-27.7c6.9-14,12.6-25.3,12.8-25.2C128.1,43.5,134.4,55.9,141.8,70.9z"/></svg>